<?xml version="1.0" encoding="UTF-8"?>
<svg xmlns="http://www.w3.org/2000/svg">
	<symbol id="menu" width="30" height="18" viewBox="0 0 30 18" fill="none">
		<g>
			<line x1="8.74228e-08" y1="1" x2="25" y2="1" stroke="white" stroke-width="2" />
			<line x1="8.74228e-08" y1="9" x2="13" y2="9" stroke="white" stroke-width="2" />
			<line x1="8.74228e-08" y1="17" x2="30" y2="17" stroke="white" stroke-width="2" />
		</g>
	</symbol>
	<symbol id="phone" width="14" height="13" viewBox="0 0 14 13" fill="none">
		<g>
			<path d="M13.2824 10.3572C13.2824 10.2947 13.2824 10.2322 13.2556 10.1697C13.1931 9.98216 12.7556 9.78573 12.577 9.69645C12.0681 9.41073 11.5502 9.13395 11.0502 8.8393C10.8181 8.69645 10.5324 8.42859 10.2556 8.42859C9.71094 8.42859 8.9163 10.0447 8.43415 10.0447C8.19308 10.0447 7.88058 9.82145 7.66629 9.69645C6.04129 8.79466 4.9163 7.66966 4.01451 6.04466C3.88951 5.83037 3.66629 5.51787 3.66629 5.2768C3.66629 4.79466 5.28237 4.00002 5.28237 3.45537C5.28237 3.17859 5.01451 2.89287 4.87165 2.66073C4.57701 2.16073 4.30022 1.64287 4.01451 1.13395C3.92522 0.955375 3.72879 0.517875 3.54129 0.455375C3.47879 0.428589 3.41629 0.428589 3.35379 0.428589C3.03237 0.428589 2.40737 0.571446 2.11272 0.705375C1.67522 0.892875 1.38951 1.39287 1.1663 1.79466C0.880581 2.32145 0.710938 2.85716 0.710938 3.45537C0.710938 4.28573 1.05022 5.03573 1.32701 5.79466C1.52344 6.3393 1.76451 6.86609 2.06808 7.35716C3.00558 8.87502 4.83594 10.7054 6.35379 11.6429C6.84487 11.9464 7.37165 12.1875 7.91629 12.3839C8.67522 12.6607 9.42522 13 10.2556 13C10.8538 13 11.3895 12.8304 11.9163 12.5447C12.3181 12.3214 12.8181 12.0357 13.0056 11.5982C13.1395 11.3036 13.2824 10.6786 13.2824 10.3572Z" fill="white" />
		</g>
	</symbol>
	<!-- SOCIAL LINKS -->
	<symbol id="arrowDiscuss" width="121" height="23" viewBox="0 0 121 23" fill="none">
		<g>
			<path d="M104 1L120 11.5L104 22" />
			<line x1="-4.37114e-08" y1="11.5" x2="100" y2="11.5" />
		</g>
	</symbol>
	<!-- STEPS ICON -->
	<symbol id="step1" width="77" height="94" viewBox="0 0 77 94" fill="none">
		<g>
			<path d="M37 1H7C3.68629 1 1 3.68629 1 7V65C1 68.3137 3.68629 71 7 71H45C48.3137 71 51 68.3137 51 65V23" stroke="#FFAC30" stroke-linejoin="round" />
			<path d="M26 71L26 87C26 90.3137 28.6863 93 32 93H70C73.3137 93 76 90.3137 76 87V46" stroke="#FFAC30" stroke-linejoin="round" />
			<path d="M37 15H52L37 1V15Z" fill="#FFAC30" stroke="#FFAC30" stroke-linejoin="round" />
			<path d="M61 37H76L61 23V37Z" fill="#FFAC30" stroke="#FFAC30" stroke-linejoin="round" />
			<line x1="61" y1="23.5" x2="51" y2="23.5" stroke="#FFAC30" />
			<line x1="41" y1="59.5" x2="11" y2="59.5" stroke="#FFAC30" />
			<line x1="41" y1="51.5" x2="11" y2="51.5" stroke="#FFAC30" />
			<line x1="41" y1="42.5" x2="11" y2="42.5" stroke="#FFAC30" />
		</g>
	</symbol>
	<symbol id="step2" width="101" height="101" viewBox="0 0 101 101" fill="none">
		<g xmlns="http://www.w3.org/2000/svg">
			<path d="M85.9322 71.7901L21.2132 7.07107C17.3079 3.16582 10.9763 3.16582 7.07102 7.07107V7.07107C3.16578 10.9763 3.16577 17.308 7.07102 21.2132L71.7901 85.9323" stroke="#FFAC30" />
			<path d="M85.8225 71.6323L93.0621 93.062L71.6324 85.8225" stroke="#FFAC30" />
			<path d="M7.07102 7.07107C10.9763 3.16583 17.3079 3.16583 21.2132 7.07107L26.7481 12.606L12.606 26.7481L7.07102 21.2132C3.16578 17.308 3.16578 10.9763 7.07102 7.07107Z" fill="#FFAC30" />
			<line x1="16.6464" y1="30.6464" x2="30.6464" y2="16.6464" stroke="#FFAC30" />
			<line x1="24.7071" y1="24" x2="30" y2="29.2929" stroke="#FFAC30" stroke-linecap="round" />
			<line x1="34.7071" y1="34" x2="79" y2="78.2929" stroke="#FFAC30" stroke-linecap="round" />
			<path d="M48.5 34.6758L77.7623 5.41348C80.1055 3.07033 83.9044 3.07034 86.2476 5.41348L91.9044 11.0703C94.2476 13.4135 94.2476 17.2125 91.9044 19.5556L62.9601 48.5M48.5 62.9601L19.3848 92.0753C17.0416 94.4184 13.2426 94.4184 10.8995 92.0753L5.24264 86.4184C2.8995 84.0753 2.8995 80.2763 5.24264 77.9331L34.6758 48.5" stroke="#FFAC30" />
			<line x1="72.435" y1="37.4558" x2="64.6568" y2="29.6776" stroke="#FFAC30" stroke-linecap="round" stroke-linejoin="round" />
			<line x1="89.4057" y1="20.4854" x2="81.6275" y2="12.7072" stroke="#FFAC30" stroke-linecap="round" stroke-linejoin="round" />
			<line x1="78.092" y1="31.7991" x2="75.2635" y2="28.9706" stroke="#FFAC30" stroke-linecap="round" stroke-linejoin="round" />
			<line x1="66.7782" y1="43.1128" x2="63.9498" y2="40.2844" stroke="#FFAC30" stroke-linecap="round" stroke-linejoin="round" />
			<line x1="83.7487" y1="26.1421" x2="80.9203" y2="23.3137" stroke="#FFAC30" stroke-linecap="round" stroke-linejoin="round" />
			<line x1="37.4349" y1="73.1924" x2="29.6567" y2="65.4142" stroke="#FFAC30" stroke-linecap="round" stroke-linejoin="round" />
			<line x1="19.7781" y1="89.9292" x2="11.9999" y2="82.151" stroke="#FFAC30" stroke-linecap="round" stroke-linejoin="round" />
			<line x1="43.0918" y1="67.5356" x2="40.2634" y2="64.7072" stroke="#FFAC30" stroke-linecap="round" stroke-linejoin="round" />
			<line x1="25.4351" y1="84.2725" x2="22.6067" y2="81.444" stroke="#FFAC30" stroke-linecap="round" stroke-linejoin="round" />
			<line x1="31.7781" y1="78.8494" x2="28.9497" y2="76.0209" stroke="#FFAC30" stroke-linecap="round" stroke-linejoin="round" />
		</g>
	</symbol>
	<symbol id="step3" width="80" height="79" viewBox="0 0 80 79" fill="none">
		<g>
			<path d="M9.5 51.5078V51.5078C4.34077 51.5078 0.241189 55.8492 0.527371 61.0005V61.0005C0.792329 65.7697 4.73728 69.5078 9.51388 69.5078H47.5" stroke="#FFAC30" />
			<path d="M0.5 60.5078L0.5 14.0078C0.5 9.03725 4.52944 5.00781 9.5 5.00781V5.00781V52.0078" stroke="#FFAC30" />
			<line x1="9" y1="17.5078" x2="46" y2="17.5078" stroke="#FFAC30" />
			<line x1="61" y1="17.5078" x2="72" y2="17.5078" stroke="#FFAC30" />
			<line x1="71.5" y1="46.0078" x2="71.5" y2="18.0078" stroke="#FFAC30" />
			<path d="M36.1698 42.1803L67.3366 11.0135C69.3642 8.98593 69.3642 5.69864 67.3366 3.6711V3.6711C65.3091 1.64356 62.0218 1.64356 59.9943 3.6711L28.8274 34.8379" stroke="#FFAC30" />
			<path d="M28.696 35.4109L35.5881 42.3031L25.4514 45.5476L28.696 35.4109Z" fill="#FFAC30" stroke="#FFAC30" />
			<path d="M67.216 3.67891C69.2436 5.70645 69.2436 8.99374 67.216 11.0213L64.3424 13.8949L57 6.55256L59.8736 3.67891C61.9012 1.65137 65.1885 1.65137 67.216 3.67891Z" fill="#FFAC30" />
			<line x1="55.3536" y1="8.65426" x2="62.3536" y2="15.6543" stroke="#FFAC30" />
			<line x1="29.3536" y1="34.6543" x2="36.3536" y2="41.6543" stroke="#FFAC30" />
			<line x1="20.5" y1="46.5078" x2="52.5" y2="46.5078" stroke="#FFAC30" stroke-linecap="round" />
			<path d="M56 61.0078L79 38.0078V78.0078H39L52 65.0078" stroke="#FFAC30" stroke-linecap="round" />
			<path d="M59.2071 69.5078L69.5 59.2149V69.5078H59.2071Z" stroke="#FFAC30" />
			<line x1="74.5" y1="51.5078" x2="78.5" y2="51.5078" stroke="#FFAC30" stroke-linecap="round" />
			<line x1="74.5" y1="58.5078" x2="78.5" y2="58.5078" stroke="#FFAC30" stroke-linecap="round" />
			<line x1="74.5" y1="63.5078" x2="78.5" y2="63.5078" stroke="#FFAC30" stroke-linecap="round" />
			<line x1="74.5" y1="69.5078" x2="78.5" y2="69.5078" stroke="#FFAC30" stroke-linecap="round" />
		</g>
	</symbol>
	<symbol id="step4" width="94" height="92" viewBox="0 0 94 92" fill="none">
		<g>
			<path d="M55.0266 39L78.0945 56.7197C80.5496 58.6057 81.0709 62.0969 79.2737 64.6177V64.6177C77.4273 67.2077 73.829 67.8066 71.2432 65.9544L64.6347 61.2209" stroke="#FFAC30" stroke-linecap="round" />
			<path d="M55.0268 39C50.5268 35.5 46.5269 38 40.5268 38C36.0268 38 32.0269 35.5 31.5269 31.5C31.1518 28.5 43.0268 27.4999 48.0268 26.9999C53.0269 26.5 57.0269 29 60.5269 30C63.3269 30.8 68.5268 28.6667 71.0268 27.5" stroke="#FFAC30" />
			<path d="M66.3933 62.4351L70.9468 65.7949C73.1196 67.398 73.6051 70.4475 72.0377 72.6461V72.6461C70.4669 74.8495 67.4171 75.3816 65.193 73.8403L58.905 69.4828" stroke="#FFAC30" stroke-linecap="round" />
			<path d="M59.0265 69.5002L64.6365 73.5519C66.4989 74.897 66.8963 77.5079 65.5183 79.3461V79.3461C64.1469 81.1755 61.5459 81.5332 59.7316 80.1419L53.0266 75.0002" stroke="#FFAC30" stroke-linecap="round" />
			<path d="M53.0267 75.0002L57.6311 78.4535C59.5066 79.8601 59.887 82.5206 58.4809 84.3964V84.3964C57.1114 86.2233 54.5423 86.6399 52.6657 85.3394L47.5268 81.7783" stroke="#FFAC30" stroke-linecap="round" />
			<rect x="11.8654" y="60.6106" width="19.6318" height="9.93922" rx="4.96961" transform="rotate(-39.3518 11.8654 60.6106)" stroke="#FFAC30" />
			<rect x="24.839" y="75.8645" width="19.0117" height="10.0037" rx="5.00185" transform="rotate(-39.3518 24.839 75.8645)" stroke="#FFAC30" />
			<rect x="31.1342" y="83.7659" width="15.3281" height="9.42482" rx="4.71241" transform="rotate(-39.3518 31.1342 83.7659)" stroke="#FFAC30" />
			<rect x="18.2304" y="68.3635" width="24.6156" height="10.0037" rx="5.00185" transform="rotate(-39.3518 18.2304 68.3635)" stroke="#FFAC30" />
			<rect y="53.4248" width="38.5581" height="6.64481" rx="3.3224" transform="rotate(-60 0 53.4248)" fill="#FFAC30" />
			<rect width="38.5581" height="7.6328" rx="3.8164" transform="matrix(-0.5 -0.866025 -0.866025 0.5 93.416 52.9307)" fill="#FFAC30" />
			<path d="M8.02673 52C10.0267 52 12.5267 52.5 16.0267 57" stroke="#FFAC30" />
			<path d="M84.5266 52C82.7766 52 80.5891 52.4 77.5266 56" stroke="#FFAC30" />
			<line x1="21.6704" y1="27.5211" x2="31.6704" y2="30.5211" stroke="#FFAC30" />
			<line x1="46.0267" y1="11.5" x2="46.0267" y2="0.5" stroke="#FFAC30" stroke-linecap="round" />
			<line x1="32.8365" y1="16.8466" x2="26.3733" y2="6.69027" stroke="#FFAC30" stroke-linecap="round" />
			<line x1="0.5" y1="-0.5" x2="12.5384" y2="-0.5" transform="matrix(0.536875 -0.843661 -0.843661 -0.536875 59.5266 17)" stroke="#FFAC30" stroke-linecap="round" />
		</g>
	</symbol>
	<symbol id="step5" width="76" height="87" viewBox="0 0 76 87" fill="none">
		<g>
			<path d="M9.24756 27H6.74756C3.43385 27 0.747559 24.3137 0.747559 21V7C0.747559 3.68629 3.43385 1 6.74756 1H60.7476C64.0613 1 66.7476 3.68629 66.7476 7V21C66.7476 24.3137 64.0613 27 60.7476 27H34.2476" stroke="#FFAC30" />
			<rect x="46.2476" y="49.5" width="37" height="18" rx="5.5" transform="rotate(90 46.2476 49.5)" stroke="#FFAC30" />
			<path d="M9.74756 1.5V43C9.74756 46.866 12.8816 50 16.7476 50V50C20.6136 50 23.7476 46.866 23.7476 43V23.5" stroke="#FFAC30" />
			<path d="M33.7476 1.5V34C33.7476 36.7614 31.509 39 28.7476 39V39C25.9861 39 23.7476 36.7614 23.7476 34V20.9691" stroke="#FFAC30" />
			<path d="M66.2476 14H74.7476C74.7476 17.3333 74.7476 24.9 74.7476 28.5C74.7476 33 72.2476 34 67.2476 35.5C62.2476 37 46.7476 41.5 43.2476 42.5C39.7476 43.5 37.2476 45 37.2476 49.5" stroke="#FFAC30" />
			<rect x="27.7476" y="57" width="19" height="8" fill="#FFAC30" />
		</g>
	</symbol>
	<symbol id="step6" width="77" height="86" viewBox="0 0 77 86" fill="none">
		<g>
			<path d="M7.74756 30.8926V77.3926C7.74756 80.7063 10.4338 83.3926 13.7476 83.3926H55.2476" stroke="#FFAC30" stroke-linecap="round" />
			<path d="M0.747559 35.9937L37.7476 7.99365L75.5493 35.9937" stroke="#FFAC30" stroke-linecap="round" stroke-linejoin="round" />
			<circle cx="37.2476" cy="50.8926" r="17" stroke="#FFAC30" />
			<path fill-rule="evenodd" clip-rule="evenodd" d="M37.2476 62.3926C43.5988 62.3926 48.7476 57.2439 48.7476 50.8926C48.7476 44.5413 43.5988 39.3926 37.2476 39.3926C30.8963 39.3926 25.7476 44.5413 25.7476 50.8926C25.7476 57.2439 30.8963 62.3926 37.2476 62.3926ZM43.5909 47.2561C43.7916 47.0665 43.8007 46.75 43.6111 46.5493C43.4215 46.3485 43.105 46.3395 42.9042 46.5291L34.777 54.2048L31.5909 51.1957C31.3901 51.0061 31.0737 51.0152 30.8841 51.2159C30.6944 51.4167 30.7035 51.7331 30.9042 51.9228L34.777 55.5803L43.5909 47.2561Z" fill="#FFAC30" />
			<path d="M52.1116 60.0997L67.9872 75.9753C69.5493 77.5374 69.5493 80.0701 67.9872 81.6322C66.4251 83.1943 63.8924 83.1943 62.3303 81.6322L46.4547 65.7565L52.1116 60.0997Z" stroke="#FFAC30" />
			<line x1="67.2476" y1="29.8926" x2="67.2476" y2="67.8926" stroke="#FFAC30" stroke-linecap="round" />
		</g>
	</symbol>
	<symbol id="arrow-right" width="24" height="31" viewBox="0 0 24 31" fill="none">
		<g>
			<path d="M1 1L23 15.5L1 30" stroke="white" />
		</g>
	</symbol>
</svg>
